<svg viewBox="0 0 575 575" class="roots-wrapper"><g transform="rotate(0 0 0)"><svg viewBoxSize="575" data-root-id="1085281907095" xmlns="http://www.w3.org/2000/svg" xmlns:xlink="http://www.w3.org/1999/xlink" xmlnsSerif="http://www.serif.com/" viewBox="483.83599853515625 477.7872314453125 1867.32861328125 1525.4227294921875" version="1.1" xml:space="preserve" height="187.875" width="230" y="173.85" x="172.507" preserveAspectRatio="xMinYMin" zoom="1" editorType="buyer" data-layer-role="icon" style="fill-rule: evenodd; clip-rule: evenodd; stroke-linejoin: round; stroke-miterlimit: 2; position: absolute; height: 187.875px; width: 230px; top: 173.85px; left: 172.507px;"><path id="Layer2" d="M1133.99,1212.26C1033.8,1215.33 911.686,1237.88 807.637,1312.07C803.614,1314.94 799.684,1317.91 795.847,1320.99L795.847,881.591C795.847,881.591 899.832,821.555 899.832,821.555C908.869,824.031 917.819,826.777 926.679,829.773C1018.19,860.785 1099.96,918.795 1167.67,980.639C1180.07,991.961 1192,1003.42 1203.43,1014.88C1190.03,1029.2 1179.06,1045.08 1170.09,1062.32C1132.38,1038.32 1091.49,1015.41 1048,995.726C990.535,969.718 929.105,949.335 864.976,939.622C926.791,956.041 984.855,982.533 1038.38,1014.21C1080.74,1039.28 1119.9,1067.53 1155.44,1096.45C1150.1,1111.72 1145.89,1127.8 1142.6,1144.6C1120.22,1137.42 1097.07,1130.88 1073.23,1125.25C1026.1,1114.12 977.024,1106.52 926.608,1104.74C975.618,1113.49 1022.53,1127.7 1067.02,1145.13C1091.49,1154.72 1115.01,1165.28 1137.51,1176.4C1136.02,1188.07 1134.87,1200.04 1133.99,1212.26ZM1017.97,1727.65C1017.28,1727.26 795.847,1599.41 795.847,1599.41L795.847,1452.64C915.059,1469.56 1033.73,1439.93 1134.29,1396.84C1136.58,1395.86 1138.87,1394.87 1141.14,1393.88C1143.19,1404.94 1145.55,1416 1148.21,1427.02C1128.16,1436.7 1107.33,1445.9 1085.76,1454.36C1041.27,1471.79 994.356,1486 945.346,1494.75C995.762,1492.98 1044.84,1485.38 1091.97,1474.25C1113.94,1469.06 1135.33,1463.09 1156.07,1456.57C1159.04,1466.75 1162.25,1476.86 1165.7,1486.85C1142.04,1504.2 1117.06,1520.93 1090.84,1536.45C1037.32,1568.12 979.252,1594.62 917.436,1611.03C981.565,1601.32 1043,1580.94 1100.46,1554.93C1126.83,1542.99 1152.25,1529.87 1176.58,1516.04C1179.69,1523.79 1182.93,1531.44 1186.32,1538.97C1144.81,1608.06 1091.18,1675.57 1023.38,1723.91C1021.59,1725.2 1019.78,1726.44 1017.97,1727.65ZM1908.43,829.737C1917.25,826.755 1926.17,824.021 1935.17,821.555C1935.17,821.555 2039.15,881.591 2039.15,881.591L2039.15,1320.99C2035.32,1317.91 2031.39,1314.94 2027.36,1312.07C1922.9,1237.58 1800.23,1215.15 1699.82,1212.22C1698.66,1200.39 1697.2,1188.79 1695.4,1177.43C1718.53,1165.93 1742.75,1155.02 1767.98,1145.13C1812.47,1127.7 1859.38,1113.49 1908.39,1104.74C1857.98,1106.52 1808.9,1114.12 1761.77,1125.25C1736.83,1131.14 1712.64,1138.03 1689.31,1145.6C1685.66,1129.58 1681.21,1114.17 1675.85,1099.49C1712.37,1069.51 1752.78,1040.15 1796.62,1014.21C1850.14,982.533 1908.21,956.041 1970.02,939.622C1905.89,949.335 1844.47,969.718 1787,995.726C1741.92,1016.13 1699.63,1040 1660.78,1064.95C1651.89,1047.75 1641.36,1031.86 1628.93,1017.52C1641.16,1005.19 1653.97,992.833 1667.33,980.639C1735.07,918.771 1816.87,860.74 1908.43,829.737ZM2039.15,1452.64L2039.15,1599.41L1817.03,1727.65C1815.22,1726.44 1813.41,1725.2 1811.62,1723.91C1743.48,1675.33 1689.66,1607.4 1648.07,1537.95C1651.4,1530.61 1654.61,1523.16 1657.68,1515.62C1682.24,1529.6 1707.9,1542.87 1734.54,1554.93C1792,1580.94 1853.43,1601.32 1917.56,1611.03C1855.75,1594.62 1797.68,1568.12 1744.16,1536.45C1717.74,1520.81 1692.56,1503.94 1668.73,1486.43C1672.21,1476.53 1675.45,1466.51 1678.45,1456.41C1699.34,1462.99 1720.89,1469.02 1743.03,1474.25C1790.16,1485.38 1839.24,1492.98 1889.65,1494.75C1840.64,1486 1793.74,1471.79 1749.25,1454.36C1727.55,1445.86 1706.61,1436.6 1686.46,1426.87C1689.16,1415.87 1691.57,1404.83 1693.66,1393.79C1696,1394.81 1698.35,1395.83 1700.71,1396.84C1801.27,1439.93 1919.94,1469.56 2039.15,1452.64Z" name="Layer %{number}" zoom="1" data-layer-id="4894468207096" style="fill: rgb(147, 217, 248); fill-opacity: 0;"></path><path id="Layer4" d="M1497.75,569.011C1480.34,590.664 1464.68,615.636 1455.17,639.763C1442.04,637.534 1429.27,636.377 1417.5,636.377C1406.31,636.377 1393.97,637.534 1381.14,639.728C1371.55,615.422 1355.72,590.255 1338.15,568.491L1417.5,522.677L1497.75,569.011ZM948.658,793.365L1313.98,582.447C1326.79,602.72 1337.98,625.481 1343.27,646.615C1332.05,639.182 1318.29,634.804 1303.44,634.804C1265.69,634.804 1235.04,663.091 1235.04,697.933C1235.04,704.239 1236.04,710.331 1237.91,716.08C1202.58,762.508 1195.85,820.842 1195.76,896.544C1195.75,906.936 1201.5,916.477 1210.7,921.314C1219.9,926.151 1231.02,925.485 1239.58,919.585C1285.84,887.676 1365.63,878.154 1421.01,878.154C1476.25,878.154 1551.1,885.6 1594.91,917.29C1603.44,923.457 1614.71,924.311 1624.07,919.499C1633.43,914.687 1639.29,905.025 1639.24,894.502C1638.87,822.895 1628.24,765.357 1596.08,720.116C1599.43,712.668 1601.28,704.501 1601.28,695.938C1601.28,661.096 1570.63,632.809 1532.88,632.809C1518.29,632.809 1504.77,637.029 1493.66,644.218C1498.9,624.145 1509.65,602.46 1521.95,582.983L1886.34,793.365C1792.79,826.958 1708.89,886.252 1639.23,949.872C1625.07,962.797 1611.51,975.893 1598.58,988.972C1549.29,951.889 1474.29,930.561 1417.5,930.561C1362.81,930.561 1286.83,952.432 1235.25,987.789C1222.67,975.104 1209.5,962.408 1195.77,949.872C1126.11,886.252 1042.21,826.958 948.658,793.365ZM1207.89,1582.07C1218.27,1600.73 1229.53,1618.28 1241.55,1634.36C1277.39,1682.28 1320.17,1717.01 1366.35,1731.82C1382.8,1783 1421.36,1902.09 1424.85,1904.5C1428.49,1907.02 1466.7,1774.7 1480.51,1726.41C1521.2,1709.47 1559.07,1677.24 1591.45,1634.5C1603.92,1618.05 1615.6,1600.04 1626.35,1580.89C1666.47,1643.88 1716.38,1704.5 1777.43,1750.52L1417.5,1958.32L1057.57,1750.52C1118.24,1704.79 1167.9,1644.64 1207.89,1582.07Z" name="Layer %{number}" zoom="1" data-layer-id="8918658207096" style="fill: rgb(0, 174, 239); fill-opacity: 0;"></path><path id="Layer5" d="M1648.04,1538.01L1648.07,1537.95C1689.66,1607.4 1743.48,1675.33 1811.62,1723.91C1743.49,1675.34 1689.65,1607.43 1648.04,1538.01ZM1817.03,1727.65L2039.15,1599.41L2039.15,1452.64C2045.4,1451.75 2051.65,1450.74 2057.9,1449.59C2065.64,1448.17 2073.28,1446.49 2080.82,1444.58L2080.82,1611.44C2080.82,1618.88 2076.85,1625.76 2070.4,1629.48L1861.47,1750.11C1846.33,1744.72 1831.41,1737.26 1817.03,1727.65ZM973.527,1750.11L764.597,1629.48C758.151,1625.76 754.18,1618.88 754.18,1611.44L754.18,1444.58C761.72,1446.49 769.363,1448.17 777.103,1449.59C783.351,1450.74 789.599,1451.75 795.847,1452.64L795.847,1599.41C795.847,1599.41 1017.28,1727.26 1017.97,1727.65C1003.59,1737.26 988.671,1744.72 973.527,1750.11ZM1023.38,1723.91C1091.18,1675.57 1144.81,1608.06 1186.32,1538.97L1186.35,1539.04C1144.82,1608.1 1091.17,1675.58 1023.38,1723.91ZM1132.02,1253.4C1039.3,1256.58 927.387,1277.86 831.828,1345.99C818.662,1355.38 806.646,1366.09 795.847,1377.85L795.847,1410.51C792.107,1409.93 788.367,1409.3 784.628,1408.61C774.276,1406.71 764.119,1404.29 754.18,1401.4C746.671,1399.21 739.286,1396.75 732.034,1394.03C738.71,1383.07 746.101,1372.54 754.18,1362.55L754.18,869.563C754.18,862.12 758.151,855.243 764.596,851.521L837.334,809.526C845.831,810.343 854.38,811.534 862.965,813.11C884.671,817.096 905.925,822.74 926.679,829.773C917.819,826.777 908.869,824.031 899.832,821.555C899.832,821.555 795.847,881.591 795.847,881.591L795.847,1320.99C799.684,1317.91 803.614,1314.94 807.637,1312.07C911.686,1237.88 1033.8,1215.33 1133.99,1212.26C1133.03,1225.67 1132.4,1239.4 1132.02,1253.4ZM1137.51,1176.4C1115.01,1165.28 1091.49,1154.72 1067.02,1145.13C1022.53,1127.7 975.618,1113.49 926.608,1104.74C977.024,1106.52 1026.1,1114.12 1073.23,1125.25C1097.07,1130.88 1120.22,1137.42 1142.6,1144.6C1140.58,1154.93 1138.9,1165.54 1137.51,1176.4ZM1155.44,1096.45C1119.9,1067.53 1080.74,1039.28 1038.38,1014.21C984.855,982.533 926.791,956.041 864.976,939.622C929.105,949.335 990.535,969.718 1048,995.726C1091.49,1015.41 1132.38,1038.32 1170.09,1062.32C1164.45,1073.17 1159.6,1084.57 1155.44,1096.45ZM1660.78,1064.95C1699.63,1040 1741.92,1016.13 1787,995.726C1844.47,969.718 1905.89,949.335 1970.02,939.622C1908.21,956.041 1850.14,982.533 1796.62,1014.21C1752.78,1040.15 1712.37,1069.51 1675.85,1099.49C1671.45,1087.48 1666.45,1075.95 1660.78,1064.95ZM1689.31,1145.6C1712.64,1138.03 1736.83,1131.14 1761.77,1125.25C1808.9,1114.12 1857.98,1106.52 1908.39,1104.74C1859.38,1113.49 1812.47,1127.7 1767.98,1145.13C1742.75,1155.02 1718.53,1165.93 1695.4,1177.43C1693.69,1166.58 1691.66,1155.96 1689.31,1145.6ZM1699.82,1212.22C1800.23,1215.15 1922.9,1237.58 2027.36,1312.07C2031.39,1314.94 2035.32,1317.91 2039.15,1320.99L2039.15,881.591C2039.15,881.591 1935.17,821.555 1935.17,821.555C1926.17,824.021 1917.25,826.755 1908.43,829.737C1929.15,822.721 1950.37,817.089 1972.04,813.11C1980.62,811.534 1989.17,810.343 1997.67,809.526L2070.4,851.521C2076.85,855.243 2080.82,862.12 2080.82,869.563L2080.82,1362.55C2088.9,1372.54 2096.29,1383.07 2102.97,1394.03C2095.71,1396.75 2088.33,1399.21 2080.82,1401.4C2070.88,1404.29 2060.72,1406.71 2050.37,1408.61C2046.63,1409.3 2042.89,1409.93 2039.15,1410.51L2039.15,1377.85C2028.35,1366.09 2016.34,1355.38 2003.17,1345.99C1907.51,1277.78 1795.45,1256.53 1702.67,1253.39C1702.08,1239.41 1701.14,1225.68 1699.82,1212.22ZM1686.46,1426.87C1706.61,1436.6 1727.55,1445.86 1749.25,1454.36C1793.74,1471.79 1840.64,1486 1889.65,1494.75C1839.24,1492.98 1790.16,1485.38 1743.03,1474.25C1720.89,1469.02 1699.34,1462.99 1678.45,1456.41C1681.35,1446.62 1684.03,1436.76 1686.46,1426.87ZM1668.73,1486.43C1692.56,1503.94 1717.74,1520.81 1744.16,1536.45C1797.68,1568.12 1855.75,1594.62 1917.56,1611.03C1853.43,1601.32 1792,1580.94 1734.54,1554.93C1707.9,1542.87 1682.24,1529.6 1657.68,1515.62C1661.59,1506.02 1665.28,1496.28 1668.73,1486.43ZM1176.58,1516.04C1152.25,1529.87 1126.83,1542.99 1100.46,1554.93C1043,1580.94 981.565,1601.32 917.436,1611.03C979.252,1594.62 1037.32,1568.12 1090.84,1536.45C1117.06,1520.93 1142.04,1504.2 1165.7,1486.85C1169.1,1496.7 1172.73,1506.44 1176.58,1516.04ZM1156.07,1456.57C1135.33,1463.09 1113.94,1469.06 1091.97,1474.25C1044.84,1485.38 995.762,1492.98 945.346,1494.75C994.356,1486 1041.27,1471.79 1085.76,1454.36C1107.33,1445.9 1128.16,1436.7 1148.21,1427.02C1150.6,1436.92 1153.22,1446.78 1156.07,1456.57Z" name="Layer %{number}" zoom="1" data-layer-id="4743069407096" style="fill: rgb(255, 211, 1); fill-opacity: 1;"></path><path id="Layer3" d="M1252.57,850.612C1254.98,803.789 1263.66,766.277 1294.5,736.31C1322.69,708.928 1379.21,692.271 1417.5,692.271C1454.36,692.271 1504.85,706.198 1532.39,731.876C1564.14,761.473 1576.9,800.08 1581.32,847.797C1531.51,828.868 1469.99,822.26 1421.01,822.26C1371.32,822.26 1305.3,830.216 1252.57,850.612ZM1620.69,1116.73L1209.25,1116.73C1218.05,1092 1230.84,1069.98 1249.41,1051.38L1249.41,1051.38C1287.94,1012.77 1365.14,988.996 1417.5,988.996C1467.96,988.996 1537.01,1008.95 1574.72,1045.2C1595.3,1064.98 1610.13,1089.21 1620.69,1116.73ZM1266.89,1567.47L1566.54,1567.47C1559.67,1578.61 1552.44,1589.23 1544.88,1599.21C1508.29,1647.49 1464.52,1681.32 1416.04,1681.32C1367.66,1681.32 1324.38,1647.55 1288.35,1599.36C1280.85,1589.34 1273.69,1578.67 1266.89,1567.47ZM1630.5,1410.46L1204.15,1410.46C1194.95,1371.17 1189.94,1331.33 1189.94,1293.64C1189.94,1286.96 1189.96,1280.32 1190.01,1273.75L1644.89,1273.75C1645,1280.33 1645.06,1286.97 1645.06,1293.64C1645.06,1331.34 1639.92,1371.17 1630.5,1410.46Z" name="Layer %{number}" zoom="1" data-layer-id="6418316207096" style="fill: rgb(255, 255, 255); fill-opacity: 0;"></path><path id="Layer21" serifId="Layer2" d="M2039.15,1410.51C1925.79,1428.23 1812.74,1399.51 1717.12,1358.55C1711.4,1356.09 1705.73,1353.6 1700.14,1351.06C1702.35,1331.63 1703.49,1312.4 1703.49,1293.64C1703.49,1280.04 1703.23,1266.61 1702.67,1253.39C1795.45,1256.53 1907.51,1277.78 2003.17,1345.99C2016.34,1355.38 2028.35,1366.09 2039.15,1377.85L2039.15,1410.51ZM1132.02,1253.4C1131.65,1266.58 1131.51,1280.01 1131.51,1293.64C1131.51,1312.41 1132.63,1331.65 1134.79,1351.09C1129.22,1353.62 1123.58,1356.1 1117.88,1358.55C1022.26,1399.51 909.21,1428.23 795.847,1410.51L795.847,1377.85C806.646,1366.09 818.662,1355.38 831.828,1345.99C927.387,1277.86 1039.3,1256.58 1132.02,1253.4Z" name="Layer %{number}" zoom="1" data-layer-id="7663481607096" style="fill: rgb(255, 255, 255); fill-opacity: 0;"></path><path id="black" d="M1018.28,1775.94C907.573,1834.41 778.312,1795.82 718.088,1680.86C677.845,1604.04 678.6,1510.39 712.795,1431.25C562.761,1372.37 464.819,1214.08 486.951,1050.01C512.257,862.428 684.109,737.904 870.49,772.128C878.273,773.557 886.003,775.183 893.678,776.995L1289.29,548.584C1287.8,546.815 1286.32,545.11 1284.86,543.476C1253.02,507.847 1211.66,485.49 1168.3,480.109C1214.27,478.895 1260.57,496.39 1299.31,528.469C1302.55,531.148 1305.83,534.042 1309.14,537.126L1407.08,480.578C1413.53,476.857 1421.47,476.857 1427.92,480.578L1526.67,537.596C1530.15,534.336 1533.61,531.284 1537.01,528.469C1575.75,496.39 1622.04,478.895 1668.02,480.109C1624.66,485.49 1583.3,507.847 1551.46,543.476C1549.86,545.265 1548.23,547.141 1546.59,549.096L1941.32,776.995C1949,775.183 1956.73,773.557 1964.51,772.128C2150.89,737.904 2322.74,862.428 2348.05,1050.01C2370.18,1214.08 2272.24,1372.37 2122.2,1431.25C2156.4,1510.39 2157.16,1604.04 2116.91,1680.86C2056.69,1795.82 1927.43,1834.41 1816.72,1775.94L1427.92,2000.42C1421.47,2004.14 1413.53,2004.14 1407.08,2000.42L1018.28,1775.94ZM948.658,793.365C1042.21,826.958 1126.11,886.252 1195.77,949.872C1209.5,962.408 1222.67,975.104 1235.25,987.789C1286.83,952.432 1362.81,930.561 1417.5,930.561C1474.29,930.561 1549.29,951.889 1598.58,988.972C1611.51,975.893 1625.07,962.797 1639.23,949.872C1708.89,886.252 1792.79,826.958 1886.34,793.365L1521.95,582.983C1509.65,602.46 1498.9,624.145 1493.66,644.218C1504.77,637.029 1518.29,632.809 1532.88,632.809C1570.63,632.809 1601.28,661.096 1601.28,695.938C1601.28,704.501 1599.43,712.668 1596.08,720.116C1628.24,765.357 1638.87,822.895 1639.24,894.502C1639.29,905.025 1633.43,914.687 1624.07,919.499C1614.71,924.311 1603.44,923.457 1594.91,917.29C1551.1,885.6 1476.25,878.154 1421.01,878.154C1365.63,878.154 1285.84,887.676 1239.58,919.585C1231.02,925.485 1219.9,926.151 1210.7,921.314C1201.5,916.477 1195.75,906.936 1195.76,896.544C1195.85,820.842 1202.58,762.508 1237.91,716.08C1236.04,710.331 1235.04,704.239 1235.04,697.933C1235.04,663.091 1265.69,634.804 1303.44,634.804C1318.29,634.804 1332.05,639.182 1343.27,646.615C1337.98,625.481 1326.79,602.72 1313.98,582.447L948.658,793.365ZM1203.43,1014.88C1192,1003.42 1180.07,991.961 1167.67,980.639C1084.6,904.769 980.377,834.67 862.965,813.11C700.316,783.244 550.327,891.884 528.244,1055.58C506.015,1220.36 620.904,1378.54 784.628,1408.61C901.733,1430.11 1019.11,1400.87 1117.88,1358.55C1123.58,1356.1 1129.22,1353.62 1134.79,1351.09C1132.63,1331.65 1131.51,1312.41 1131.51,1293.64C1131.51,1179.94 1141.62,1080.96 1203.43,1014.88ZM1141.14,1393.88C1138.87,1394.87 1136.58,1395.86 1134.29,1396.84C1028.46,1442.19 902.571,1472.63 777.103,1449.59C768.725,1448.05 760.46,1446.22 752.317,1444.1C721.327,1512.61 719.903,1594.53 754.997,1661.53C808.442,1763.55 928.724,1791.41 1023.38,1723.91C1091.17,1675.58 1144.82,1608.1 1186.35,1539.04C1165.88,1493.46 1150.36,1443.63 1141.14,1393.88ZM1207.89,1582.07C1167.9,1644.64 1118.24,1704.79 1057.57,1750.52L1417.5,1958.32L1777.43,1750.52C1716.38,1704.5 1666.47,1643.88 1626.35,1580.89C1615.6,1600.04 1603.92,1618.05 1591.45,1634.5C1559.07,1677.24 1521.2,1709.47 1480.51,1726.41C1466.7,1774.7 1428.49,1907.02 1424.85,1904.5C1421.36,1902.09 1382.8,1783 1366.35,1731.82C1320.17,1717.01 1277.39,1682.28 1241.55,1634.36C1229.53,1618.28 1218.27,1600.73 1207.89,1582.07ZM1497.75,569.011L1417.5,522.677L1338.15,568.491C1355.72,590.255 1371.55,615.422 1381.14,639.728C1393.97,637.534 1406.31,636.377 1417.5,636.377C1429.27,636.377 1442.04,637.534 1455.17,639.763C1464.68,615.636 1480.34,590.664 1497.75,569.011ZM1648.04,1538.01C1689.65,1607.43 1743.49,1675.34 1811.62,1723.91C1906.28,1791.41 2026.56,1763.55 2080,1661.53C2115.1,1594.53 2113.67,1512.61 2082.68,1444.1C2074.54,1446.22 2066.28,1448.05 2057.9,1449.59C1932.43,1472.63 1806.54,1442.19 1700.71,1396.84C1698.35,1395.83 1696,1394.81 1693.66,1393.79C1684.31,1443.19 1668.64,1492.69 1648.04,1538.01ZM1700.14,1351.06C1705.73,1353.6 1711.4,1356.09 1717.12,1358.55C1815.89,1400.87 1933.27,1430.11 2050.37,1408.61C2214.1,1378.54 2328.99,1220.36 2306.76,1055.58C2284.67,891.884 2134.68,783.244 1972.04,813.11C1854.62,834.67 1750.4,904.769 1667.33,980.639C1653.97,992.833 1641.16,1005.19 1628.93,1017.52C1686.32,1083.77 1703.49,1183.01 1703.49,1293.64C1703.49,1312.4 1702.35,1331.63 1700.14,1351.06ZM1252.57,850.612C1305.3,830.216 1371.32,822.26 1421.01,822.26C1469.99,822.26 1531.51,828.868 1581.32,847.797C1576.9,800.08 1564.14,761.473 1532.39,731.876C1504.85,706.198 1454.36,692.271 1417.5,692.271C1379.21,692.271 1322.69,708.928 1294.5,736.31C1263.66,766.277 1254.98,803.789 1252.57,850.612ZM1620.69,1116.73C1610.13,1089.21 1595.3,1064.98 1574.72,1045.2C1537.01,1008.95 1467.96,988.996 1417.5,988.996C1365.14,988.996 1287.94,1012.77 1249.41,1051.38L1249.41,1051.38C1230.84,1069.98 1218.05,1092 1209.25,1116.73L1620.69,1116.73ZM1266.89,1567.47C1273.69,1578.67 1280.85,1589.34 1288.35,1599.36C1324.38,1647.55 1367.66,1681.32 1416.04,1681.32C1464.52,1681.32 1508.29,1647.49 1544.88,1599.21C1552.44,1589.23 1559.67,1578.61 1566.54,1567.47L1266.89,1567.47ZM1630.5,1410.46C1639.92,1371.17 1645.06,1331.34 1645.06,1293.64C1645.06,1286.97 1645,1280.33 1644.89,1273.75L1190.01,1273.75C1189.96,1280.32 1189.94,1286.96 1189.94,1293.64C1189.94,1331.33 1194.95,1371.17 1204.15,1410.46L1630.5,1410.46Z" name="Layer %{number}" zoom="1" data-layer-id="7772355207096" style="fill: rgb(0, 0, 0); fill-opacity: 1;"></path></svg></g><g transform="rotate(0 0 0)"><svg viewBoxSize="575" data-root-id="9155105507096" xmlns="http://www.w3.org/2000/svg" y="409.8500061035156" viewBox="0 0 0 0" x="287.5074908447266" height="0" width="0" fontUrl="https://fonts.gstatic.com/s/montserrat/v26/JTUHjIg1_i6t8kCHKm4532VJOt5-QNFgpCtr6Ew-Y3tcoqK5.ttf" zoom="1" editorType="buyer" data-layer-role="slogan" style="position: absolute; top: 409.85px; width: 0px; height: 0px; left: 287.507px;"><g data-horizontal-grow="center" zoom="1" root="[object Object]" style="fill: rgb(0, 0, 0);"><path d="" transform="translate(0, 0)"></path></g></svg></g><g transform="rotate(0 0 0)"><svg viewBoxSize="575" data-root-id="2996753607097" xmlns="http://www.w3.org/2000/svg" y="379.85" viewBox="2.4600000381469727 9.270000457763672 195.97999572753906 29.110000610351562" x="189.51699908447264" height="29.110000610351562" width="195.97999572753906" fontUrl="https://fonts.gstatic.com/s/russoone/v16/Z9XUDmZRWg6M1LvRYsH-yMOInrib9Q.ttf" zoom="1" editorType="buyer" data-layer-role="brandName" style="position: absolute; top: 379.85px; width: 195.98px; height: 29.11px; left: 189.517px;"><g data-horizontal-grow="center" zoom="1" root="[object Object]" style="fill: rgb(0, 0, 0);"><path d="M2.46 37.97L2.46 9.27L18.86 9.27Q22.88 9.27 24.76 11.09Q26.65 12.91 26.65 16.65L26.65 16.65Q26.65 19.11 25.58 20.64Q24.52 22.18 22.96 22.80L22.96 22.80Q26.28 23.70 27.47 27.22L27.47 27.22Q27.88 28.50 27.88 30.18L27.88 30.18Q27.88 34.19 25.99 36.08Q24.11 37.97 20.09 37.97L20.09 37.97L2.46 37.97ZM20.50 29.77L20.50 28.95Q20.50 26.49 18.04 26.49L18.04 26.49L9.84 26.49L9.84 32.23L18.04 32.23Q20.50 32.23 20.50 29.77L20.50 29.77ZM19.27 18.29L19.27 17.47Q19.27 15.01 16.81 15.01L16.81 15.01L9.84 15.01L9.84 20.75L16.81 20.75Q19.27 20.75 19.27 18.29L19.27 18.29ZM43.26 20.95L39.57 20.95Q37.93 20.95 37.93 22.59L37.93 22.59L37.93 24.85L44.90 24.85L44.90 22.59Q44.90 20.95 43.26 20.95L43.26 20.95ZM51.25 32.43L51.25 37.56Q43.34 38.38 36.90 38.38L36.90 38.38Q34.11 38.38 32.43 36.70Q30.75 35.01 30.75 32.23L30.75 32.23L30.75 22.39Q30.75 19.31 32.49 17.57Q34.23 15.83 37.31 15.83L37.31 15.83L45.51 15.83Q48.59 15.83 50.33 17.57Q52.07 19.31 52.07 22.39L52.07 22.39L52.07 29.97L37.93 29.97L37.93 31.61Q37.93 32.23 38.34 32.64Q38.75 33.05 39.36 33.05L39.36 33.05Q43.42 33.05 51.25 32.43L51.25 32.43ZM67.86 20.95L64.17 20.95Q62.53 20.95 62.53 22.59L62.53 22.59L62.53 24.85L69.50 24.85L69.50 22.59Q69.50 20.95 67.86 20.95L67.86 20.95ZM75.85 32.43L75.85 37.56Q67.94 38.38 61.50 38.38L61.50 38.38Q58.71 38.38 57.03 36.70Q55.35 35.01 55.35 32.23L55.35 32.23L55.35 22.39Q55.35 19.31 57.09 17.57Q58.84 15.83 61.91 15.83L61.91 15.83L70.11 15.83Q73.19 15.83 74.93 17.57Q76.67 19.31 76.67 22.39L76.67 22.39L76.67 29.97L62.53 29.97L62.53 31.61Q62.53 32.23 62.94 32.64Q63.35 33.05 63.96 33.05L63.96 33.05Q68.02 33.05 75.85 32.43L75.85 32.43ZM105.37 21.57L105.37 37.35Q95.78 38.38 87.74 38.38L87.74 38.38Q83.72 38.38 81.84 36.49Q79.95 34.60 79.95 30.59L79.95 30.59L79.95 17.47Q79.95 13.16 81.90 11.21Q83.84 9.27 88.15 9.27L88.15 9.27L102.91 9.27L102.91 15.01L89.79 15.01Q87.33 15.01 87.33 17.47L87.33 17.47L87.33 30.59Q87.33 31.53 87.88 32.08Q88.44 32.64 89.38 32.64L89.38 32.64Q94.09 32.64 97.99 32.43L97.99 32.43L97.99 26.49L92.66 26.49L92.66 21.57L105.37 21.57ZM125.05 22.18L121.57 22.18Q118.98 22.18 116.23 23.41L116.23 23.41L116.23 37.97L109.06 37.97L109.06 16.24L115.42 16.24L115.83 18.90Q119.35 15.83 123.21 15.83L123.21 15.83L125.05 15.83L125.05 22.18ZM139.20 20.95L135.51 20.95Q133.87 20.95 133.87 22.59L133.87 22.59L133.87 24.85L140.84 24.85L140.84 22.59Q140.84 20.95 139.20 20.95L139.20 20.95ZM147.19 32.43L147.19 37.56Q139.28 38.38 132.84 38.38L132.84 38.38Q130.05 38.38 128.37 36.70Q126.69 35.01 126.69 32.23L126.69 32.23L126.69 22.39Q126.69 19.31 128.43 17.57Q130.18 15.83 133.25 15.83L133.25 15.83L141.45 15.83Q144.53 15.83 146.27 17.57Q148.01 19.31 148.01 22.39L148.01 22.39L148.01 29.97L133.87 29.97L133.87 31.61Q133.87 32.23 134.28 32.64Q134.69 33.05 135.30 33.05L135.30 33.05Q139.36 33.05 147.19 32.43L147.19 32.43ZM163.80 20.95L160.11 20.95Q158.47 20.95 158.47 22.59L158.47 22.59L158.47 24.85L165.44 24.85L165.44 22.59Q165.44 20.95 163.80 20.95L163.80 20.95ZM171.79 32.43L171.79 37.56Q163.88 38.38 157.44 38.38L157.44 38.38Q154.65 38.38 152.97 36.70Q151.29 35.01 151.29 32.23L151.29 32.23L151.29 22.39Q151.29 19.31 153.03 17.57Q154.78 15.83 157.85 15.83L157.85 15.83L166.05 15.83Q169.13 15.83 170.87 17.57Q172.61 19.31 172.61 22.39L172.61 22.39L172.61 29.97L158.47 29.97L158.47 31.61Q158.47 32.23 158.88 32.64Q159.28 33.05 159.90 33.05L159.90 33.05Q163.96 33.05 171.79 32.43L171.79 32.43ZM189.83 21.77L188.40 21.77Q186.22 21.77 183.47 22.59L183.47 22.59L183.47 37.97L176.30 37.97L176.30 16.24L182.66 16.24L183.06 18.29Q184.99 17.02 187.02 16.42Q189.05 15.83 190.44 15.83L190.44 15.83L192.29 15.83Q195.08 15.83 196.76 17.51Q198.44 19.19 198.44 21.98L198.44 21.98L198.44 37.97L191.26 37.97L191.26 23.21Q191.26 22.59 190.85 22.18Q190.44 21.77 189.83 21.77L189.83 21.77Z" transform="translate(0, 0)"></path></g></svg></g></svg>